<?xml version="1.0" encoding="utf-8"?>
<svg version="1.1" id="Lag_1" xmlns="http://www.w3.org/2000/svg" xmlns:xlink="http://www.w3.org/1999/xlink" x="0px" y="0px"
	 viewBox="0 0 50.9 104" enable-background="new 0 0 50.9 104" xml:space="preserve">
<g>
	<path fill="#FFFFFF" d="M25.6,21.1c0,0.5,0.2,1.1,0.4,1.8c0.2,0.8,0.5,1.7,1,2.9c0.5,1.1,1.1,2.3,1.8,3.5c0.5,0,2.4-3.5,5.5-10.5
		c3.2-7,4.9-10.6,5.3-10.7c0.8-0.2,1.4-0.3,2-0.4c0.6-0.1,1.1-0.2,1.5-0.2c0.6,0.2,1,0.5,1.3,0.7c0.3,0.3,0.5,0.6,0.5,1.1
		c0,0.8-0.1,1.7-0.4,2.9c-0.3,1.1-0.7,2.4-1.3,3.8c-0.7,2.5-1.7,5.5-2.9,8.9c-1.2,3.4-2.7,7.4-4.4,11.8c-0.2,1.3-0.5,2.8-0.9,4.6
		c-0.4,1.7-1,3.8-1.7,6.2c-0.6,1.6-1.1,3-1.4,4.2c-0.3,1.2-0.5,2.1-0.5,2.8c0,0.4,0.1,1.2,0.2,2.3c0.1,1.1,0.2,1.8,0.1,2.3
		c0,1.7-0.1,3.3-0.3,4.9c0.1,1.1,0.2,2.1,0.3,3c-0.2,1.9-0.5,3.6-0.7,5.2c0,1.1,0.3,2,0.9,2.5c0.6,0.5,1.6,0.8,2.8,0.8
		c0.5,0,1.1-0.1,2.1-0.4c0.9-0.3,1.6-0.4,2.1-0.4c0.9,0.3,1.5,0.5,1.7,0.5c1,0,2.8-1,5.4-3c2.5-2,3.9-3,4.2-3c0.3,0,0.5,0.2,0.6,0.5
		c0.1,0.3,0.2,0.8,0.2,1.3c0,0.7-0.1,1.3-0.2,1.9c-0.1,0.6-0.4,1.1-0.7,1.4c-0.3,0.4-0.6,0.7-0.9,1.1c-0.3,0.3-0.6,0.7-0.9,1
		c-0.6,0.9-1,1.9-1.4,2.9c-0.5,1.2-1,2.2-1.5,2.9c-0.5,0.7-1,1.3-1.5,1.7c-1.4,0.6-2.7,1.2-4,1.7c-0.7,0.5-1.3,1-1.9,1.4
		c-0.4,0.2-0.8,0.4-1.1,0.5s-0.6,0.2-0.9,0.2c-2.2-0.3-4.4-0.6-6.6-0.8c-0.2-0.1-0.5-0.1-0.7,0.1c-0.2,0.2-0.5,0.5-0.7,1
		c-0.3,0.5-0.7,1.1-1.2,1.8c-0.9,3-1.6,5.3-2.2,7c-0.6,1.7-1,2.8-1.3,3.3c-0.7,1.4-1.6,2.4-2.7,3.1c-1.1,0.7-2.5,1-4.1,1
		c-0.7,0-1.2-0.4-1.5-1.2c-0.3-0.8-0.5-2.1-0.5-3.8c0-0.4,0-0.8,0.1-1.2c0.1-0.4,0.1-0.9,0.2-1.4c0.1-0.5,0.3-1.3,0.5-2.3
		c0-0.7,0-1.7,0-3c0-1.3,0.4-3.4,1.1-6.2c0.3-1.4,0.5-2.6,0.6-3.6c0.1-1.1,0.2-2,0.1-2.9l-0.5-1.6c-3.9-5-7.1-10.9-9.6-17.6
		c-2.6-6.7-4.6-14.4-5.9-22.9c-0.2-1.8-0.5-3.7-0.8-5.7c0.2-5.5,0.4-9.9,0.6-13c0.2-3.1,0.3-5.1,0.4-6c0.6-3.8,1.6-6.7,2.9-8.6
		C5.2,1,6.8,0,8.8,0c0.2,0,0.7,0.1,1.5,0.4c0.8,0.3,2,0.6,3.4,0.9l6.6,8c0.7,1.2,1.5,2.8,2.4,4.8C23.5,16.1,24.5,18.4,25.6,21.1z
		 M24.1,47.6c-0.2,0-0.4,0.1-0.7,0.4c-0.3,0.3-0.5,0.7-0.8,1.2c-0.3,0.7-0.6,1.2-0.9,1.6c-0.3,0.4-0.5,0.6-0.6,0.7L20.9,51
		c0.1-1.4,0.2-2.6,0.3-3.8c0-0.3,0.6-1.7,1.8-4.3c1.1-2.6,1.7-4.4,1.7-5.5c-0.2-0.9-0.4-1.8-0.6-2.7c-0.1-0.4-0.2-1-0.3-2
		c0-1-0.1-2.2-0.2-3.6c0-0.3-0.1-0.6-0.3-1.1c-0.2-0.4-0.5-1-0.9-1.6l-2.5-7.2c-1.3-3.8-2.7-6.7-4.2-8.6c-1.5-1.9-3.1-2.9-4.7-2.9
		c-0.8,0-1.6,0.4-2.3,1.2C8,9.8,7.4,11,7,12.7c-0.3,1.1-0.6,2.4-0.7,3.8c-0.1,1.4-0.2,2.9-0.2,4.6c0,1.5,0.2,3.8,0.7,6.8
		c0.4,3,0.7,5.3,0.7,6.8c-0.1,0.9-0.2,1.7-0.3,2.3c0.8,3.7,1.8,7.3,3.1,10.7c1.3,3.4,2.8,6.7,4.7,9.8c1.2,2.1,2.1,3.6,2.9,4.7
		c0.8,1,1.3,1.6,1.6,1.6c0.2,0,0.5-0.2,0.8-0.7c0.3-0.5,0.6-1.1,0.9-2c0.2-0.8,0.5-1.5,0.7-2.1c0.2-0.7,0.4-1.4,0.6-2.1
		c0.1-0.7,0.2-1.4,0.4-2.1c0.1-0.7,0.4-1.5,0.6-2.3c0.4-1,0.7-1.9,0.9-2.7c0.2-0.7,0.4-1.3,0.4-1.6L24.1,47.6z"/>
</g>
</svg>
