<svg xmlns="http://www.w3.org/2000/svg" viewBox="0 0 979.17 211.34"><title>signature</title><path d="M614.83,167.44c-3.36-.25-6.78.52-10.09-.56-1.5-.49-3-.87-4.54-1.32-2.1-.63-4.19-1.28-6.3-1.9-.51-.15-1.13-.08-1.54-.36-1.91-1.26-4.16-.84-6.23-1.28a43.24,43.24,0,0,1-5.81-1.26c-1.9-.69-4-.55-5.77-1.19-2.76-1-5.7-.52-8.41-1.76-2.55-1.16-5.52-1.07-8.28-1.62-3.83-.76-7.78-1.09-11.43-2.53-1.78-.71-3.64-.69-5.43-1.07-3-.65-5.86-1.67-8.85-2.26-2.07-.41-4-1.48-6.07-1.94-3.21-.71-6-2.43-8.89-3.9-3.56-1.81-7.52-3.16-10.52-5.66-4.1-3.42-8.76-6.44-11.4-11.41-.85-1.6-2-2.16-4.15-1.37s-4.33,1-6.35,2c-4.44,2.16-8.84,4.59-11.59,8.74a58.94,58.94,0,0,0-4.72,8.06,11.22,11.22,0,0,1-6.32,5.69,26.55,26.55,0,0,0-3.89,2.38,33.33,33.33,0,0,1-8.14,3.41,63.75,63.75,0,0,1-12.41,2.27A23.72,23.72,0,0,1,425.64,157c-3.84-1.61-7.17-4.12-8-8.54-.35-1.92-1.2-1.83-2.43-1.32-4,1.66-7.93,3.42-11.91,5.09a78.77,78.77,0,0,1-10.73,4c-1.52.39-2.68.71-4-.1-.72-.43-.8.11-1,.71-1.06,3.63-.94,7.38-1.18,11.09-.46,7-.83,14-1.42,21.06-.24,2.89.19,5.84.25,8.76a52.55,52.55,0,0,1-.11,8.75c-.3,2.08-1.64,3.06-3.06,4.12-.32.24-.75.32-1,.57-3.17,2.71-3.27,2.84-6.58.58a18,18,0,0,1-4.42-4.64c-4.3-6.18-3.27-13-2.2-19.77a118.6,118.6,0,0,1,5.34-19.61c1.41-4.14,2.65-8.34,4.44-12.34.28-.62.8-1.48.25-2.06s-1.42-.12-2.08.11c-3.41,1.19-6.29,3.39-9.47,5-2.16,1.1-3.22,3-4.14,5.08a11.61,11.61,0,0,1-6.41,5.88,18.9,18.9,0,0,1-5.1,1.09,35.49,35.49,0,0,0-11.82,3.74,12.7,12.7,0,0,1-5.64,1.07c-.69,0-1.13-.19-1.32-.92a5.34,5.34,0,0,0-1.12-1.87c-1.54-2-1.32-3.51.79-4.83a18,18,0,0,1,2.8-1.49c3.9-1.57,7.29-4.08,10.86-6.25.5-.31,1.12-.68,1-1.37s-.8-.8-1.4-.92a6.21,6.21,0,0,1-2.61-1.42c-1.51-1.17-2.95-2.46-5-2.7-1.28-.15-1.45-1.55-2.32-2.24-2-1.6-3.45-1.65-5.16.18a34.91,34.91,0,0,1-6.52,5.21c-2.27,1.48-4,3.68-6.49,4.95-2.05,1-3.93,2.63-6.09,3.22-2,.54-4.19,1.35-6.46,0-1.48-.9-2.85-1.63-3.37-3.37-.38-1.26-1-1-1.72-.29-3.39,3.17-7.59,4.83-11.84,6.39-2.91,1.07-6.87-1.55-8.3-5-1.27-3.08-.27-5.87,1-8.38,1.59-3.15,2.91-6.5,5.27-9.24,4-4.59,8.15-9,13.66-11.64,4.85-2.32,9.93-2,14.76.51,1.62.83,2.08,3.51.86,5.54a3.72,3.72,0,0,0-.48,3.15c.45,1.84-.48,3.6-1.46,5.06-1.47,2.17-2,4.6-2.67,7-.37,1.35.58,2,2.09,1.53a17.17,17.17,0,0,0,5.36-3.38c4.29-3.66,9-6.91,12.62-11.27,2-2.44,3.49-5.31,5.94-7.46,2.12-1.86,4.23-2.28,6.7-.91,2,1.1,2.33,2.88,1.2,4.86a34.62,34.62,0,0,1-3.82,5.11c-1.53,1.81-1.44,2.58.4,4.14s3.5,3.45,5.59,4.46c3.79,1.83,7.52,3.53,12.14,1.22,5.33-2.67,10.56-5.69,16.41-7.31A11.15,11.15,0,0,0,379,143.2a3.05,3.05,0,0,1,1.92-1c2.24.22,2.87-1.29,3.72-2.86,2.93-5.38,6-10.67,10.54-14.93a19.92,19.92,0,0,1,7.11-4.69c3.11-1.07,8,1.25,9.77,4.19,2.88,4.75,2.38,9.34.09,14-.28.57-.87,1.18-.38,1.84s1.22.06,1.83,0c2.8-.44,5.08-1.55,6.51-4.26,1.81-3.42,5.16-5.36,8-7.81a23.67,23.67,0,0,1,5.46-3.16c1.44-.7,6.1,1.35,7.07,2.91s.08,4.5-1.52,6.18a30.8,30.8,0,0,1-10.43,7.5c-2.34,1-3,3-3,5.18s1.74,3.47,3.52,4.45c2.4,1.32,5.05.75,7.59.85,4.38.17,8.42-1.57,12.61-2.56a20.22,20.22,0,0,0,9.92-6c1.67-1.7,2.12-4.14,3.58-6,2-2.53,2.8-5.87,5.42-8A49.13,49.13,0,0,1,483,120.54a20.16,20.16,0,0,1,5.37-1.41c1.46-.11,1.67-.79,1.31-2.16a36.85,36.85,0,0,1-.93-13.47c.62-5.83,3.27-10.89,6.63-15.63a89.11,89.11,0,0,1,11.83-14c1.71-1.59,3.62-2.92,5.39-4.42a131,131,0,0,1,10.58-8.09c3-2.06,6.3-3.57,9.34-5.56A56.63,56.63,0,0,1,538.84,52c4.42-2.13,8.92-4.1,13.41-6.06,6.84-3,13.82-5.62,20.89-8,5.1-1.68,10.27-3.19,15.46-4.63s10.77-2.36,16-4.28a39.91,39.91,0,0,1,5.78-1.46c5.6-1.16,11-3,16.57-4.33,4.72-1.11,9.52-1.72,14.2-3,8.71-2.34,17.69-3.26,26.48-5.16,5.06-1.09,10.15-1.92,15.25-2.71,3.44-.53,6.93-.88,10.4-1.31,6.11-.76,12.21-1.68,18.31-2.48,3.09-.4,6.19-.71,9.29-1,7-.72,13.91-1.49,20.88-2.1,6.37-.55,12.78-.73,19.14-1.41,6-.64,11.94-.92,17.92-1.15,10.85-.41,21.71-.73,32.56-.91,3.86-.06,7.73.12,11.6.13,8.66,0,17.33,0,26,.45,5.44.3,10.88.05,16.32.51,4.28.36,8.6.74,12.94.72,3,0,6,.26,9,.4,3.76.17,7.54.28,11.28.59,3.44.28,6.9.52,10.32,1A180.35,180.35,0,0,0,928,8a3.55,3.55,0,0,1,1,0c1.13.39,2.21,1.19,2.16,2.33-.06,1.3-1.52,1.42-2.53,1.38-4.91-.2-9.81-.75-14.71-.72-3.36,0-6.62-1.2-9.88-.83a60.06,60.06,0,0,1-9.75-.12c-3.7-.18-7.39-.34-11.09-.53a9.23,9.23,0,0,0-3.94.33c-1.54.58-3-.79-4.67-.51a42.62,42.62,0,0,1-6.56.14,2.81,2.81,0,0,1-.6,0C862.34,8.45,857.13,9.26,852,9c-.84-.05-1.75.2-2.5-.45-.17-.15-.61-.27-.69-.19-2.34,2.53-5.27.76-7.75.68-3.45-.1-6.93-.22-10.38-.14-5.93.14-11.86-.11-17.79,0-4.43.09-8.87.47-13.28.17s-8.76.71-13.2.42a20.44,20.44,0,0,0-6.26.41c-2.08.52-4.48,0-6.74.14-5.39.22-10.74.77-16.1,1.35-5.2.56-10.49.45-15.64,1.23-5.79.88-11.71.45-17.39,1.94-3.35.88-6.75.33-10.1,1-3.83.71-7.81.69-11.6,1.53-4,.89-8.07.87-12.09,1.51-5.07.81-10.2,1.41-15.27,2.24-3.12.51-6.29.85-9.4,1.64-4.18,1.05-8.52,1.47-12.77,2.25-3.6.66-7.33,1-10.72,2.28s-6.76,1.52-10.1,2.33c-7,1.71-13.93,3.79-21,5.25-5.2,1.08-10.19,2.87-15.4,3.86a32,32,0,0,0-5.94,1.56c-4.06,1.63-8.35,2.63-12.5,3.87-5.52,1.65-10.86,3.69-16.25,5.64-5.08,1.83-10,4.15-14.93,6.24-3.33,1.4-6.27,3.51-9.72,4.7-1.69.58-3.09,2.17-4.81,3a48.06,48.06,0,0,0-9.76,6.41c-3.63,3.14-7.78,5.61-11.14,9.07-2.12,2.18-4.26,4.33-6.39,6.49a3.1,3.1,0,0,0-1,2.52c.23,1.56-.73,2.14-1.79,2.75-.22.13-.67.28-.67.29,1.17,3.38-2.06,5.37-2.71,8.22-.41,1.79-1.53,3.53-1.49,5.46.07,3.69-.68,7.46,1,11,.64,1.34,1.19,1.65,2.73,1.34a60.21,60.21,0,0,1,7.47-.66,119.82,119.82,0,0,1,20.09-.28c2.12.19,4.23.54,6.34.86a5,5,0,0,1,1.72.52c1.3.75,2.63,1.75,2.37,3.36s-2,2.14-3.36,2.24c-4.13.3-8.26-.25-12.38-.29a70.1,70.1,0,0,0-11.88.76,47.38,47.38,0,0,1-5.9.65c-.76,0-1.86.14-2.18.62-.45.67.35,1.44.86,2a40.18,40.18,0,0,0,6.92,6.52c2.21,1.65,4.6,3.05,6.92,4.57a.59.59,0,0,0,.18.09c4.74,1.1,8.66,4.08,13.24,5.7,5.09,1.79,10.36,2.84,15.48,4.41A54.88,54.88,0,0,0,560,150.56c1.83.07,3.47.85,5.22,1.19,4.74.93,9.5,1.76,14.26,2.57,5.51.94,11,2,16.54,2.67a61.16,61.16,0,0,0,12,.53c3.28-.25,6.46.84,9.74,1,2.63.11,4.39-1.47,4.33-4.13-.11-4.57-1.6-8.83-2.62-13.21-1-4.21-2.28-8.31-3.59-12.39-1.48-4.59-2.17-9.32-3.24-14-1.31-5.65-2.72-11.3-3.59-17.07-.35-2.31-.35-4.81-1.92-7-1.45-2-.18-5.64,1.87-6.62,1.71-.82,4,.43,5.44,2.59s1.47,5,1.9,7.47c.61,3.59,1.18,7.19,1.82,10.77.73,4.13,1.84,8.17,2.5,12.31A93.24,93.24,0,0,0,623,127.46c1.33,4.77,2.45,9.59,3.72,14.38q1,3.86,2.22,7.66a20.57,20.57,0,0,1,.31,9.25c-.47,3.2-2.87,5.44-6,6.54a3.28,3.28,0,0,0-1.27.5C619.89,167.68,617.42,167.84,614.83,167.44Zm-208.9-36c.08-1.65.3-2.92-1-3.66a2.35,2.35,0,0,0-2.81.28c-1.24,1.09-2.37,2.31-3.53,3.5-2.37,2.43-3.13,5.79-4.93,8.58A16.46,16.46,0,0,0,391,145.2c-.11.49-.74.92-.29,1.46s1,0,1.45-.11c3-.56,4.85-2.89,7.25-4.39C403.55,139.56,405.2,135.53,405.93,131.41ZM287.77,158.89a11,11,0,0,0,3.75-.81c2.07-.94,3.54-2.66,5.45-3.83,3.9-2.38,4.93-6.91,7.21-10.51a1.06,1.06,0,0,0,0-1.31c-.44-.48-.81,0-1.22.18a31.71,31.71,0,0,0-9.4,5.87,75.22,75.22,0,0,0-6.15,7.28,3.37,3.37,0,0,0-.52,1.9C286.83,158.48,287.13,159,287.77,158.89Zm89.38,40.47,1.07-19.47-.61,0C376.9,186.17,374.6,192.4,377.14,199.36Zm121-105.29c-.67,1.83-2.1,2.88-2,5.22C496.77,97.31,498.73,96.53,498.12,94.07Zm165.55-76c-.5.11-1.24,0-1.3.8a.84.84,0,0,0,.84.91c.73,0,.94-.63,1.1-1.19S664.11,18,663.68,18.05Z" transform="translate(-8.32 -2.09)"/><path d="M899.39,139.5c-2.67-.75-3.57,1.55-4.38,2.81-1.3,2-3.64,3.14-4.43,5.51-1.06,3.15-3.9,4.25-6.55,5.59-1.38.69-2.42.08-3.56-.49-.67-.33-2-.65-2-.87.24-2.51-2.42-5-.2-7.49a4.74,4.74,0,0,0,.81-1.36.85.85,0,0,0-.4-1,.67.67,0,0,0-.89.14c-1.77,1.53-4.42,1.59-5.94,3.62-.31.42-1.27.3-1.87.56-3.49,1.48-7,3-10.45,4.52-2.08.94-5.39-.87-6.55-3.83-.57-1.45-1.18-2.38-2.92-1.5-.41.21-.9.12-.87.8,0,.22-.23.66-.34.65-2.78-.1-3.89,3-6.31,3.38a6.35,6.35,0,0,0-4.13,2.91,3.47,3.47,0,0,1-2.86,1.5,3.81,3.81,0,0,0-1.9.5c-1.91,1.23-4.68-.11-5.45-2.25-1.49-4.14.22-7,3.2-9.63,1.78-1.54,3.25-3.42,5.81-4.77-4.58.33-8.05,2.16-11.7,3.52-3.2,1.2-6.17,2.88-9.36,4.09a3.82,3.82,0,0,1-3.22-.21c-2.4-1.28-4.2-3-3.87-6.31-3.84,2-7.6,3.71-11,6-1.7,1.16-3.86,1.07-5.75,1.47-.89.19-3-1.41-3.47-3.29s-1-1.84-2.38-.61-3.29,2.24-4.74,3.56-2.86,2.93-4.45,4.22c-.61.49-1.09,1.32-2,1.07a2.12,2.12,0,0,0-2.6,1.29,1.15,1.15,0,0,1-1.31.65,4.88,4.88,0,0,1-4-4.75c.06-2.66,0-2.69-2.47-2-1.34.37-2.57,1.05-3.87,1.44a64.71,64.71,0,0,1-7.54,1.68c-2.22.38-4.35,1.13-6.54,1.61-5.08,1.11-10,.41-15-.54-.91-.17-1.59-.9-2.5-1.21a2.53,2.53,0,0,0-2.77.55c-1.82,1.93-4.36,2.54-6.63,3-2.93.54-5.54-1.23-7.4-3.51a16.43,16.43,0,0,1-3.46-9.4,7.59,7.59,0,0,0-1-4c-1.59,2.11-3.14,4.07-4.58,6.11a4.63,4.63,0,0,1-1.17,1.33,47.3,47.3,0,0,0-7.65,6.06c-1.9,1.82-4.38,2.64-6.14,4.71-1.46,1.72-4,2.59-6.23,3.55-1.23.53-2.26,1.38-3.58,1.83a5,5,0,0,1-5-.56c-1.9-1.42-3.51-3.11-3-5.66s1.2-5,3.57-6.66a6.06,6.06,0,0,0,1.83-2.55c-.95-.45-1.4.25-2,.49-4.68,2-9.3,4.21-14,6.15a20.83,20.83,0,0,1-6.22,2,4.87,4.87,0,0,1-5.48-5.26,12.51,12.51,0,0,1,.93-3.76c-1.75,1.16-3.08,2-4.33,2.88s-2.31,1.49-3.68.79-.84-1.95-.87-3.05c-.12-4.66,2.35-7.13,6.51-8.92,4.73-2,9.5-4.15,13.55-7.52,1.73-1.44,4.34-.85,6.44,1.21,1.2,1.18,1,2.72-.25,4.71-1.08,1.71-2.81,3.09-2.94,5.34,0,.85-.72.27-1.08.39-.57.19-.94.54-.81,1.18s.69.38,1.13.42c1.16.1,2.05-.58,3-1,6.37-3,13.17-4.81,19.73-7.29a41.51,41.51,0,0,0,4.82-2.38,5.43,5.43,0,0,1,7.55,2.13c.36.63.63,1.44.14,1.87-1.4,1.22-1.76,3.14-3.62,4.2a25.79,25.79,0,0,0-5.95,5.3c-.87,1-2.44,1.36-2.73,3.07,1.9-.22,2.86-1.68,4-2.61,4.06-3.23,8.29-6.29,11.6-10.37,2.83-3.49,5.82-6.87,8.41-10.53,1.78-2.51,2.09-5.73,3.06-8.62a88.51,88.51,0,0,1,3-8.38c1.52-3.35,2.41-6.9,3.77-10.3,1.67-4.17,3.18-8.43,5.25-12.4,2-3.82,3.19-8.06,6-11.42.52-.61,1-1.23,1.6-1.79,1.9-1.85,3-1.95,4.89-.52s2.27,3,1.27,5.19A13,13,0,0,1,737,79.76a5.44,5.44,0,0,0-1.51,4.38c0,.46.17,1-.36,1.24-.79.29-.26-1-.89-.92a51,51,0,0,0-5.66,11.89c-.37,1.15-.31,2.31-.66,3.48-1.34,4.49-3.77,8.59-4.83,13.12-1,4.07-3.36,7.47-4.3,11.56-1.37,5.92-3.24,11.68-2,17.88.5,2.51,1.74,3.54,4.32,3.21,3.27-.42,4.28-1.49,4.12-4.61-.4-7.47,2.93-12.72,9.5-16a10.86,10.86,0,0,1,1.35-.3c1.53-.53,3.13-.69,4.55-1.76,1.79-1.34,4.64-.58,6.38,1,2.48,2.19,3.83,4.81,3.13,8.07-.63,2.93-2.7,5.07-4.68,7.23a49.24,49.24,0,0,1-5.54,4.83c-.34.28-.9.53-.6,1.1.2.39.7.27,1.09.33,2.25.37,4.36-.38,6.49-.84a103.5,103.5,0,0,0,11.56-3.06c4.09-1.38,8.14-2.83,12.22-4.24,2.3-.8,3.38-2.89,5.14-4.25,2.23-1.73,4-2.18,6.28-.81a2.38,2.38,0,0,0,3.19-.25,33.55,33.55,0,0,1,6.92-3.89c3.48-1.67,8.51.81,9.32,4.62.28,1.31.51,1.62,1.89.86a26,26,0,0,1,8.57-2.53,5.75,5.75,0,0,1,6.26,3c.84,1.53,1.88,1.55,3.15,1.05a113.79,113.79,0,0,1,18.18-5c5.32-1.1,10.62-2.33,15.93-3.47,2-.43,3.49.62,4.79,1.92.63.63.9,1.14,2.06.58,2-.94,5.92,1.69,5.56,3.77-.28,1.62-1.61,3.06-2.51,4.56a6.68,6.68,0,0,1-.83.86c-.3.34-.81.7-.48,1.19.44.64,1,.13,1.39-.12,4.32-2.69,9.25-4,13.9-5.86,3-1.23,6.15-2.09,9.09-3.51,1-.49,2.22.32,3.46.08a14.89,14.89,0,0,0,7.13-3.28,16.64,16.64,0,0,1,7.53-3.52c2.35-.47,4.26.78,5.73,2.24,1.25,1.25.83,3.09,0,4.67-1.27,2.27-1.21,5.11-3.09,7.16-.46.51-.94,1.55-.23,2.19s1.57.17,2.22-.3c6.37-4.57,13.84-6,21.26-7.55a14.62,14.62,0,0,1,4.71-.05c3,.3,5.62-1.3,8.28-2.38a10.67,10.67,0,0,1,3.57-1.1c3.94-.1,7.45-2.67,11.5-2a38.49,38.49,0,0,1,4.3.83c2,.57,4.56,5.2,4.18,7.2a1.46,1.46,0,0,0-.07.39,12.14,12.14,0,0,1-1.84,7.45c-.59,1,.32,1.14.92,1.27a27.43,27.43,0,0,0,6.78.33c2.74-.11,5.47-.06,8.2,0a12,12,0,0,1,1.58.22,3.19,3.19,0,0,1,3,3c.09,1.15-2.54,2.59-3.86,2.92-3.1.78-6.27.69-9.37.82-4.35.18-8.76,1.86-13.13-.31a7.17,7.17,0,0,1-3.58-8.11,65.09,65.09,0,0,1,2-6.65c.23-.57.64-1.3.05-1.88s-1.22-.13-1.88,0c-2.26.33-4,1.57-6,2.58-1.23.63-2.9.91-4.19,1.76-4.19,2.73-8.65,5.1-12.11,8.83a2.1,2.1,0,0,1-1.23.6,3.09,3.09,0,0,0-2.61,2.1,3.05,3.05,0,0,1-2.93,2,5.4,5.4,0,0,0-2.81.94c-2.91,1.67-5.44.77-6.53-2.44a5.46,5.46,0,0,1-.36-3.32c.23-.83.28-2-.49-2.39s-1.39.76-2.14,1.11c-3.62,1.65-7,4.1-11.3,3.61-3.57-.41-5.7-3-5.81-6.59A8.65,8.65,0,0,1,899.39,139.5Zm-166.88-.08a37.51,37.51,0,0,0,3.41-2.32c1.5-1.28,3.46-1.91,4.71-3.56.95-1.24.39-1.76-.75-1.71a9.4,9.4,0,0,0-4.2,1.63C733.6,134.69,732.62,136.68,732.51,139.42Zm-47.36,9.51a3.71,3.71,0,0,0-3.16,2.77A6.69,6.69,0,0,0,685.15,148.93Z" transform="translate(-8.32 -2.09)"/><path d="M8.32,129.11c.21-5.57,1.31-9.64,3.65-13.33a9.86,9.86,0,0,1,3.49-2.87,56.24,56.24,0,0,1,17.72-6.83c4.24-.88,8.58-1.06,12.77-1.82s8-.18,12.06-.82c2.21-.35,4.84.18,7.3.23,3.79.08,7.57.37,11.36.55a20.25,20.25,0,0,1,9.05,2.11c.4.22,1,.27,1,.83s-.61.54-.95.79c-3.25,2.45-7,1.74-10.65,1.91-3.46.17-6.94-.21-10.4.41a34.12,34.12,0,0,1-4.12,0c-5.74.29-11.45.82-17.17,1.45-3.07.34-6.18.76-9.18,1.27s-6.34,1-9,2.93a6.34,6.34,0,0,1-1.66.59,7.3,7.3,0,0,0-3.9,4.45c-2.64,6.63-2.07,13.18-.06,19.84.76,2.5,1.78,4.86,2.62,7.3.51,1.47,1.6,2.5,2.42,3.73A58.11,58.11,0,0,0,31,160.09a26.07,26.07,0,0,0,3,2.82c2.3,1.72,4,4.08,6.55,5.52a23.68,23.68,0,0,0,7.26,2.77c.65.13.91.79,1.47.92.91.22,1.73.6,2.79-.07a2.11,2.11,0,0,1,3.26.94c.64,1.4,2,1.26,3.06,1.49,4,.84,8.07,1.57,12.1,2.34a2.63,2.63,0,0,0,.79.09c4.69-.59,9.26,1.1,13.93.79,4.4-.29,8.8-.39,13.21-.85a123.13,123.13,0,0,1,14.89-.53,45.43,45.43,0,0,0,12.37-1.25c4.82-1.26,9.78-2.25,14.4-3.92,5.85-2.12,12-4.41,15.79-10a5.82,5.82,0,0,0,.92-3.43c0-2.27.57-4.43,0-6.87a23.23,23.23,0,0,1-.63-6.17c.16-2.68-.78-5.25-1.26-7.85-1-5.54-1.45-11.13-2.11-16.7-.37-3.16-1.09-6.29-1.24-9.45-.16-3.54-1.1-7-1-10.55.09-2.85-1.29-5.53-1.48-8.4a39.23,39.23,0,0,0-.86-8.07c-1.09-3.89-1-8.09-3-11.74-.63-1.14-1.44-1.06-2.34-.55A93.78,93.78,0,0,1,130,77.47c-4.52,1.72-9,3.53-13.62,5C112,83.8,107.73,85.8,103.27,87c-2.51.65-5.13,1.07-7.67,1.72A137.38,137.38,0,0,1,80,91.57a34.14,34.14,0,0,1-12-.13,18.92,18.92,0,0,1-4.69-1.58c-1.65-.86-1.88-2.66-1.71-4.19.14-1.28,1.35-2.22,2.57-2.83a1,1,0,0,1,.95.06c1.6,2,3.68.77,5.55.87,3.78.21,7.55.66,11.34.19a104.1,104.1,0,0,0,16.81-3.19,77.13,77.13,0,0,1,8.59-2.53c5.7-1,10.9-3.32,16.21-5.37,4.64-1.8,9.52-3.07,13.82-5.66,2.48-1.49,5.27-2.48,7.32-4.71,1.43-1.56,5.31-1.42,6.86,0a1.66,1.66,0,0,1,.58,1c.07,5.62,2.28,10.84,2.92,16.38s1.73,10.77,2,16.19c.19,3.51.75,7,1,10.45.22,2.67.75,5.35,1.15,8,0,.26.22.53.18.77-.82,5.18,1.07,10.12,1.52,15.19a92.76,92.76,0,0,0,2.45,14.9,30.51,30.51,0,0,1-.14,17.34c-.62,1.92-2,3.25-3.31,4.7-1.54,1.77-3,3.57-5.45,4.29a2.08,2.08,0,0,0-1.51,1.48c0,.19-.14.52-.21.52-3.16,0-4.88,2.88-7.65,3.79-3.43,1.13-6.44,3.67-10.08,4-3.89.34-7.51,2.25-11.51,1.7a2.09,2.09,0,0,0-1,.15c-4.1,1.56-8.43,1.07-12.65,1.27-2.33.11-4.59.64-6.94.66-3,0-5.93.27-8.9.15-5.91-.23-11.83-.35-17.75-.61-1.92-.09-3.82-.54-5.74-.73-6.11-.6-12-2.32-18.14-3a22.59,22.59,0,0,1-9.72-2.93,13.56,13.56,0,0,0-3.55-1.08c-3.16-.94-5.84-2.72-8.62-4.31a23.52,23.52,0,0,1-6-4.88,33.17,33.17,0,0,0-5.56-5.6c-.88-.62-.77-2-1.4-3a68.09,68.09,0,0,1-8.28-19.06C8.29,136.2,8.5,132,8.32,129.11Z" transform="translate(-8.32 -2.09)"/><path d="M175.66,128c-2.16.86-3,2.49-4.17,3.8a3.72,3.72,0,0,1-5.17.77c-.71-.52-1.08-1.2-.59-1.86,1.13-1.49,1.11-3.23,1.34-4.93.46-3.48,3.33-5.1,5.73-6.8,5.16-3.65,9.72-8,15-11.47,2.22-1.43,4.26-3.17,6.56-4.45a24.51,24.51,0,0,0,4.71-3.35,26.11,26.11,0,0,1,5.52-3.53c4.09-2.23,7.6-5.35,11.72-7.55,7.37-3.95,14.39-8.5,22.09-11.9,3.79-1.67,7.42-3.87,11.13-5.82,2.75-1.45,5.52-2.85,8.33-4.17,4.46-2.09,9-4.07,13.44-6.13.77-.36,1.46-.9,2.21-1.3,2.08-1.1,4.5-1,6.67-2a48.59,48.59,0,0,1,9.35-3.4c4.38-1.08,8.67-2.47,13.13-3.26a68.55,68.55,0,0,1,10-1.16,4.48,4.48,0,0,1,4.32,2c1.23,1.91.55,3.57-1.62,4.28-1.86.61-3.69,0-5.53.15a24.81,24.81,0,0,0-4.89.85c-6,1.56-12,3.37-18,5.19A107.5,107.5,0,0,0,270.88,68c-5.69,2.8-11.54,5.31-17.16,8.31-5.07,2.72-10.18,5.45-15.4,7.92-2.54,1.2-5,2.68-7.41,4.06-2,1.15-4.09,2.38-6.26,3.34C220,93.7,216,96.92,211.7,99.55c-3,1.83-5.87,3.88-8.73,5.92a67.17,67.17,0,0,0-6,4.69c-1.1,1-2.93,1.32-4.22,2.4-3.52,2.91-7.09,5.75-10.61,8.66-.66.55-1.38,1.31-1.13,2.19s1.24.6,1.94.71a11.34,11.34,0,0,1,3.9,1.5q9.42,5.46,19.08,10.46c2.68,1.39,5.21,3,7.9,4.42,1.9,1,3.64,2.2,5.95,2.47,1.71.2,3.29,1.48,5,2.2,3.93,1.7,8.06,3,11.79,5.09a127.76,127.76,0,0,1,15.64,9.62c2.8,2.12,5.4,4.49,8.28,6.53a20.25,20.25,0,0,1,4.41,5.07,2.65,2.65,0,0,1-.34,3.66A3.46,3.46,0,0,1,260,175c-1.66-1.52-3.81-2.29-5.28-4.22-1-1.38-3.21-1.88-4.78-3a85.81,85.81,0,0,0-7.91-5c-2-1.16-3.88-2.65-6.07-3.65a92.37,92.37,0,0,0-9.62-4.12,20.94,20.94,0,0,1-4-1.85,23,23,0,0,0-5.1-1.87c-3.2-1-5.91-2.86-8.92-4.11-4.42-1.83-8.11-4.94-12.52-6.72-1.56-.63-2.55-2.77-4.74-1.79-.11,0-.36-.14-.5-.26a25.07,25.07,0,0,0-10.75-5.32C177.64,132.57,174.81,131.57,175.66,128Z" transform="translate(-8.32 -2.09)"/><path d="M643.22,83.43c4.62.29,7.75,3.54,7.69,8a2,2,0,0,1-.23,1c-1.18,2-5.11,3.53-7.4,2.89a4.25,4.25,0,0,1-3.15-5.78,4.28,4.28,0,0,0,0-2.52A2.71,2.71,0,0,1,643.22,83.43Z" transform="translate(-8.32 -2.09)"/></svg>