<svg xmlns="http://www.w3.org/2000/svg" viewBox="0 0 202.56 109.25"><title>logo-helium</title><polygon points="54.47 30.97 54.47 49.28 32.34 49.28 32.34 30.97 30.29 30.97 30.29 49.28 25.39 49.28 25.39 30.97 23.33 30.97 23.33 51.33 54.47 51.33 54.47 56.18 23.33 56.18 23.33 76.49 25.39 76.49 25.39 58.23 30.32 58.23 30.32 76.49 32.38 76.49 32.38 58.23 54.47 58.23 54.47 76.49 56.52 76.49 56.52 30.97 54.47 30.97" fill="#ba9736"/><rect x="61.41" y="30.97" width="2.05" height="45.51" fill="#ba9736"/><path d="M123.35,67.86l-.52.52a20.69,20.69,0,1,1-1-30.16l-3.65,3.65a15.66,15.66,0,1,0,1.49,22.33l-1.5-1.5a13.53,13.53,0,1,1-1.49-19.33,12.41,12.41,0,0,1,1.46,1.44l6.63-6.63-.51-.52a22.77,22.77,0,1,0,0,32.16l.51-.52Z" fill="#ba9736"/><path d="M0,0V25.21H2.05V9H200.51V25.21h2.05V0ZM200.51,7H2.05V2.05H200.51Z" fill="#ba9736"/><path d="M202.56,109.25V84h-2.05v16.21H2.05V84H0v25.22Zm-200.51-7H200.51v4.91H2.05Z" fill="#ba9736"/><path d="M179.18,44.21A13.26,13.26,0,0,0,165.94,31h-17.1V33h17.1a11.2,11.2,0,0,1,11.19,11.19,11.08,11.08,0,0,1-3.65,8.18,10.35,10.35,0,0,0-4.34-1.66c1.53-.59,3.13-3,3.13-5.7,0-4.39-3.57-7.11-8-7.11H148.84V76.49h2V40h4.92l0,12.12h10.39a11.17,11.17,0,0,1-.29,22.33h-8.08v-5h6.43c4.39,0,8-1.87,8-6.22s-3.57-6.18-8-6.18h-8.5l0,19.41h10.13a13.23,13.23,0,0,0,9.14-22.81A12.94,12.94,0,0,0,179.18,44.21ZM164.51,50h-6.65V40h6.45c3.26,0,5.91,1.78,5.91,5S167.71,49.88,164.51,50Zm-6.65,9h6.43c3.26,0,5.9,1,5.9,4.21s-2.64,4.17-5.9,4.17h-6.43Z" fill="#ba9736"/></svg>