<svg xmlns="http://www.w3.org/2000/svg" viewBox="0 0 554.19 104.04"><title>logo</title><path d="M44.47,39.62c-.83-3.77-1.65-5.82-2.65-7-1.4-1.81-2.65-2.36-8.68-2.36H27.28V68.39c0,6.21.66,6.92,8.68,7.39v2.59H11.65V75.78c7.77-.47,8.43-1.1,8.43-7.39V30.27H14.71c-6.45,0-8.1.63-9.17,2.28C4.46,33.89,3.8,36.16,2.81,39.7H0c.41-4.87.83-10,1-14.38h1.9c1.24,1.81,2.23,2,4.63,2H40.25c2.31,0,2.89-.47,4.22-2h2c0,3.69.41,9.51.83,14.07Z" fill="#5a3d1b"/><path d="M53.39,78.37V75.94c5.37-.39,5.87-.79,5.87-6.44V50.94c0-5.82-.5-6.13-5.87-6.52V42H72.16v2.44c-5.46.39-6,.71-6,6.52V69.49c0,5.66.5,6.05,6,6.44v2.44Z" fill="#5a3d1b"/><path d="M103,42c7.19,0,13.39,1.34,17.61,5a16,16,0,0,1,5.13,12c0,13.36-11.57,19.41-25.21,19.41h-17V75.94c5.54-.39,6-.86,6-6.44V50.94c0-5.82-.5-6.13-5.54-6.52V42ZM96.45,69.41c0,4.87,1.49,6.05,6.12,6.05,9.92,0,15.13-6.13,15.13-15.48,0-11.32-6.78-15.25-15.79-15.25-2.48,0-4.13.47-4.71,1s-.74,1.57-.74,3.77Z" fill="#5a3d1b"/><path d="M171.25,68.63c-.41,2.44-1.65,8.17-2.15,9.75H136.45V75.94c5.87-.39,6.28-.86,6.28-6.52V50.94c0-5.82-.41-6.21-5.7-6.52V42h30.5c.08,1.57.33,5.34.66,9l-2.65.16a12.69,12.69,0,0,0-2.15-4.64c-1.07-1.18-2.31-1.73-6.61-1.73h-4.71c-2.23,0-2.4.08-2.4,2.2V57.86h6.2c4.71,0,5.21-.39,5.87-4.17h2.73v12h-2.73c-.74-4.09-1-4.56-5.87-4.56h-6.2v8.49c0,3.14.41,4.56,1.49,5.19s3,.79,6.45.79c4.13,0,6.36-.47,7.85-1.89a15.29,15.29,0,0,0,3.14-5.5Z" fill="#5a3d1b"/><path d="M235.14,44.42c-6.2.39-6.61.71-6.45,6.05L229,70c.17,5.27.58,5.58,6.28,6v2.44h-19V75.94c5.54-.39,6-.71,6-6.05l.17-22.64h-.25l-14.8,30.5h-2l-12.73-30h-.25l-.83,14.78a95,95,0,0,0-.25,10c.17,2.44,1.49,3.14,5.79,3.46v2.44H181.33V75.94c3.8-.24,5.21-1,5.54-3.38a97.63,97.63,0,0,0,1.32-10.22l.91-10.92c.5-6.37,0-6.6-5.87-7V42h13.47l11.9,25,13-25h13.56Z" fill="#5a3d1b"/><path d="M270.35,78.37V75.94l1.57-.16c2.4-.31,2.89-.86,1.74-3.77l-2-5H257.62A47.56,47.56,0,0,0,256,71.85c-1,3-.08,3.54,2.15,3.85l2,.24v2.44H244.73V75.94c3.89-.39,5.54-.94,7.94-6.52L265,41.51l2.89-.63,12.81,29.71c2,4.64,3.64,5.11,7.44,5.34v2.44Zm-5.62-28.53h-.17l-5.62,13.83h11.32Z" fill="#5a3d1b"/><path d="M341.68,44.42c-3.8.24-5.46,1-5.7,3.3a59.59,59.59,0,0,0-.5,9.82V78.76h-3.06L307.54,50.39l-.08.08V62.65a57.5,57.5,0,0,0,.58,10c.25,2.28,1.9,3,6.45,3.3v2.44H297.87V75.94c3.72-.24,5.37-1,5.7-3.3a72.34,72.34,0,0,0,.5-10V52.28c0-6.29-1.41-7.47-7.19-7.86V42h11.57l23.47,25.39h.17V57.54a68.91,68.91,0,0,0-.5-9.75c-.25-2.36-1.82-3.14-6.45-3.38V42h16.53Z" fill="#5a3d1b"/><path d="M395,44.42c-3.8.24-5.46,1-5.7,3.3a59.59,59.59,0,0,0-.5,9.82V78.76h-3.06L360.85,50.39l-.08.08V62.65a57.5,57.5,0,0,0,.58,10c.25,2.28,1.9,3,6.45,3.3v2.44H351.18V75.94c3.72-.24,5.37-1,5.7-3.3a72.34,72.34,0,0,0,.5-10V52.28c0-6.29-1.41-7.47-7.19-7.86V42h11.57l23.47,25.39h.17V57.54a68.91,68.91,0,0,0-.5-9.75c-.25-2.36-1.82-3.14-6.45-3.38V42H395Z" fill="#5a3d1b"/><path d="M501.54,65.17c-1.16,3.77-3.22,9.75-4.71,12.26a76.07,76.07,0,0,1-15.54,2.12c-20.58,0-29.76-13.6-29.76-25.94,0-16.66,13.64-27.51,32.15-27.51,6.78,0,12.4,1.73,14.71,2.12.74,4.48,1.24,7.7,1.74,12.18l-2.81.63c-2.23-8.33-6.94-11.79-16-11.79-13.8,0-21.16,10.92-21.16,22.71,0,14.62,9.34,24.37,21.66,24.37,8.35,0,12.56-4,16.94-12.18Z" fill="#5a3d1b"/><path d="M533.36,41c12.32,0,20.83,8.17,20.83,18.78,0,13-10.66,19.65-20.83,19.65-13.47,0-21.16-9.27-21.16-18.63C512.2,46.85,524.1,41,533.27,41Zm-.83,2.75c-6.2,0-12.23,5.11-12.23,15.33s5.87,17.61,13.89,17.61c6.2,0,12-4.24,12-15.41,0-8.65-5-17.53-13.56-17.53Z" fill="#5a3d1b"/><path d="M426.21,21.09a9.51,9.51,0,0,0,.37,1.84q.32,1.13,1,2.93a28.88,28.88,0,0,0,1.81,3.51q.78,0,5.53-10.54t5.34-10.7q1.13-.23,2-.39t1.52-.23a4,4,0,0,1,1.3.74,1.38,1.38,0,0,1,.47,1.05,12.87,12.87,0,0,1-.39,2.85,21.89,21.89,0,0,1-1.32,3.79q-1.08,3.75-2.89,8.9t-4.41,11.79a38.85,38.85,0,0,1-.91,4.57q-.66,2.62-1.74,6.21-.93,2.42-1.44,4.18a10.57,10.57,0,0,0-.51,2.77,20.18,20.18,0,0,0,.22,2.27,9.32,9.32,0,0,1,.12,2.27q0,2.5-.29,4.92.15,1.64.29,3-.34,2.81-.69,5.23a3.08,3.08,0,0,0,.93,2.5,4.34,4.34,0,0,0,2.84.78,8.32,8.32,0,0,0,2.06-.39,8.36,8.36,0,0,1,2.11-.39,8.33,8.33,0,0,0,1.66.47q1.57,0,5.39-3a26.43,26.43,0,0,1,4.16-3,.64.64,0,0,1,.59.47,3.58,3.58,0,0,1,.2,1.33,8,8,0,0,1-.22,1.91,3,3,0,0,1-.66,1.37l-.93,1.05c-.29.34-.6.66-.93,1A20.38,20.38,0,0,0,447.31,79a17.22,17.22,0,0,1-1.54,2.89,8,8,0,0,1-1.54,1.72q-2.11.94-4,1.72l-1.86,1.41-1.08.55a2.07,2.07,0,0,1-.88.23q-3.33-.47-6.61-.78a.62.62,0,0,0-.69.12,3.36,3.36,0,0,0-.73,1q-.49.78-1.22,1.8-1.37,4.45-2.2,7a18.38,18.38,0,0,1-1.27,3.28,7.12,7.12,0,0,1-2.74,3.12,7.93,7.93,0,0,1-4.11,1q-1,0-1.49-1.25A10.67,10.67,0,0,1,414.8,99a7.59,7.59,0,0,1,.1-1.17q.1-.62.25-1.41t.49-2.34q0-1.09,0-3a30.87,30.87,0,0,1,1.1-6.25q.39-2,.61-3.63a13.44,13.44,0,0,0,.12-2.85L417,76.63A69,69,0,0,1,407.31,59a115.54,115.54,0,0,1-5.92-22.92q-.34-2.66-.78-5.7.34-8.28.59-13t.39-6q.93-5.7,2.89-8.55A5.79,5.79,0,0,1,409.36,0a8.12,8.12,0,0,1,1.47.39q1.22.39,3.43.94l6.61,8a43.25,43.25,0,0,1,2.38,4.76Q424.54,17.11,426.21,21.09Zm-1.47,26.56A1.16,1.16,0,0,0,424,48a3.54,3.54,0,0,0-.76,1.17,13.74,13.74,0,0,1-.88,1.6,3.74,3.74,0,0,1-.59.74l-.34-.55q.19-2,.34-3.83a34,34,0,0,1,1.76-4.3,16,16,0,0,0,1.71-5.47,20.89,20.89,0,0,0-.64-2.66,8,8,0,0,1-.27-2q-.07-1.44-.22-3.63a2.81,2.81,0,0,0-.29-1.05,10.68,10.68,0,0,0-.93-1.6l-2.55-7.19a29.59,29.59,0,0,0-4.21-8.55q-2.25-2.85-4.7-2.85a2.88,2.88,0,0,0-2.25,1.17,9.35,9.35,0,0,0-1.62,3.59,21.15,21.15,0,0,0-.69,3.79q-.2,2.07-.2,4.57a52.38,52.38,0,0,0,.66,6.83,52.57,52.57,0,0,1,.66,6.83q-.15,1.41-.29,2.34a70.08,70.08,0,0,0,3.06,10.7,63.78,63.78,0,0,0,4.68,9.84,48.63,48.63,0,0,0,2.91,4.69q1.15,1.56,1.64,1.56t.76-.7a10.9,10.9,0,0,0,.86-2q.34-1.17.69-2.15t.64-2.15q.15-1,.37-2.07t.61-2.3q.59-1.56.93-2.66a8.64,8.64,0,0,0,.39-1.64Z" fill="#ff8000"/></svg>